# xmcd
#
# Track frame offsets: 
#        150
#        11459
#        23352
#        37775
#        50237
#        61142
#        69995
#        83624
#        97166
#        109160
#
# Disc length: 1640 seconds
#
# Revision: 0
# Processed by: cddbd v1.5.1PL2 Copyright (c) Steve Scherf et al.
# Submitted via: ExactAudioCopy v0.95a5
#
DISCID=7006660a
DTITLE=Jason Petty - Hank and my Honky Tonk Heroes
DYEAR=2004
DGENRE=Country
TTITLE0=Moanin' The Blues
TTITLE1=You Win Again
TTITLE2=Kawliga
TTITLE3=Half As Much
TTITLE4=Why Baby Why
TTITLE5=I Ain't Never
TTITLE6=Lovin' On Backstreets
TTITLE7=Almost Persuaded
TTITLE8=Wine Me Up
TTITLE9=Legend In My Time
EXTD=
EXTT0=
EXTT1=
EXTT2=
EXTT3=
EXTT4=
EXTT5=
EXTT6=
EXTT7=
EXTT8=
EXTT9=
PLAYORDER=
